<?xml version="1.0" encoding="utf-8"?>
<!-- Generator: Adobe Illustrator 24.0.0, SVG Export Plug-In . SVG Version: 6.00 Build 0)  -->
<svg version="1.1" id="Layer_1" xmlns="http://www.w3.org/2000/svg" xmlns:xlink="http://www.w3.org/1999/xlink" x="0px" y="0px"
	 viewBox="0 0 300 193.35" style="enable-background:new 0 0 300 193.35;" xml:space="preserve">
<style type="text/css">
	.st0{fill:#E6FDFF;}
	.st1{fill:#FFFFFF;}
	.st2{fill:#BEFFF9;}
	.st3{fill:#85FFF9;}
	.st4{fill:#64F2E8;}
	.st5{fill:#727C11;}
	.st6{fill:#AD6327;}
	.st7{fill:#EA5444;}
	.st8{fill:#CE7F3E;}
	.st9{fill:#AF6228;}
	.st10{fill:#D38A3C;}
	.st11{fill:#8C4815;}
	.st12{fill:#72370F;}
	.st13{fill:#E8B96D;}
	.st14{fill:#C17236;}
	.st15{fill:#724017;}
	.st16{fill:#E8C47C;}
	.st17{fill:#D88F59;}
	.st18{fill:#C48051;}
	.st19{fill:#BF7034;}
	.st20{fill:#99521D;}
	.st21{fill:#D19E54;}
	.st22{fill:#B76930;}
	.st23{fill:#8FAD27;}
	.st24{fill:#7F9119;}
	.st25{fill:#8D4811;}
	.st26{fill:#7A380C;}
	.st27{fill:#A05320;}
	.st28{fill:#A05522;}
	.st29{fill:#BF312B;}
	.st30{fill:#A81E1E;}
	.st31{fill:#E6E7E8;}
	.st32{fill:#D34C3E;}
	.st33{fill:#F5C182;}
	.st34{fill:#FAD299;}
	.st35{fill:#FFE6BA;}
	.st36{fill:#EAB071;}
</style>
<g>
	<g>
		<path class="st0" d="M150.24,2.13C85.49,2.13,33,54.62,33,119.36c0,27.44,9.42,52.68,25.23,72.65h184.03
			c15.79-19.97,25.23-45.21,25.23-72.65C267.47,54.62,214.98,2.13,150.24,2.13z"/>
		<g>
			<path class="st1" d="M136.17,63.81c0.53-1.39,0.59-2.68,0.08-3.76c-1.92-4.11-11.09-3.89-20.5,0.49
				c-1.74,0.81-3.37,1.71-4.85,2.67c-1.64-0.38-3.71-0.44-6-0.15c-0.01-0.13-0.03-0.25-0.06-0.38c-0.66-2.43-5.7-3.16-11.24-1.65
				c-5.55,1.52-9.51,4.7-8.84,7.13c0.44,1.62,2.82,2.48,6,2.44c-0.2,0.58-0.25,1.14-0.1,1.68c0.69,2.56,5.52,3.54,11.23,2.45
				c0.04,0.43,0.15,0.83,0.33,1.21c1.59,3.41,8.17,3.84,15.74,1.39c2.88,1.35,8,1.43,13.48-0.06c7.79-2.12,13.35-6.61,12.43-10.01
				C143.23,65.1,140.23,63.9,136.17,63.81z"/>
			<path class="st1" d="M230.85,48.37c0.45-1.19,0.51-2.29,0.06-3.21c-1.63-3.51-9.47-3.32-17.51,0.42
				c-1.49,0.69-2.88,1.47-4.14,2.27c-1.4-0.32-3.17-0.38-5.13-0.13c-0.01-0.11-0.03-0.21-0.05-0.32c-0.57-2.07-4.86-2.7-9.6-1.41
				c-4.74,1.29-8.12,4.02-7.55,6.09c0.38,1.38,2.4,2.12,5.12,2.07c-0.18,0.49-0.21,0.97-0.09,1.43c0.59,2.19,4.71,3.02,9.58,2.1
				c0.04,0.37,0.13,0.71,0.28,1.04c1.35,2.91,6.97,3.28,13.43,1.19c2.46,1.16,6.83,1.21,11.5-0.06c6.64-1.82,11.39-5.63,10.61-8.54
				C236.86,49.47,234.31,48.44,230.85,48.37z"/>
			<path class="st1" d="M83.41,83.03c0.09-0.45,0.08-0.9-0.05-1.33c-0.91-3.35-7.86-4.37-15.51-2.27c-0.53,0.14-1.04,0.3-1.54,0.47
				c-1.74-1.48-6.16-1.29-10.76,0.63c-5.31,2.22-8.82,5.9-7.86,8.22c0.78,1.86,4.19,2.27,8.25,1.23c1.65,2.77,8.12,3.5,15.21,1.57
				c0.86-0.24,1.69-0.49,2.49-0.78c1.23,1.16,4.55,1.05,8-0.4c3.9-1.63,6.49-4.35,5.77-6.05C86.99,83.27,85.43,82.84,83.41,83.03z"
				/>
			<path class="st1" d="M191.69,30.12c0.09-0.51,0.08-0.99-0.05-1.45c-1-3.68-8.63-4.8-17.04-2.5c-0.58,0.15-1.15,0.33-1.69,0.51
				c-1.91-1.63-6.77-1.41-11.82,0.69c-5.84,2.44-9.69,6.48-8.63,9.03c0.86,2.05,4.61,2.5,9.07,1.35c1.82,3.04,8.93,3.84,16.71,1.72
				c0.95-0.25,1.86-0.54,2.74-0.86c1.34,1.28,4.99,1.15,8.78-0.44c4.3-1.79,7.14-4.78,6.35-6.64
				C195.62,30.39,193.91,29.92,191.69,30.12z"/>
		</g>
		<g>
			<path class="st2" d="M238.19,109.75c-4.18-18.91-20.23-7.62-42.66,6.77s-60.41,0.01-100.6-7.66s-61.88,14.09-61.88,14.09l0,0
				c0.78,26.06,10.07,49.98,25.16,69.08h184.03c13.61-17.21,22.49-38.33,24.68-61.4C256.03,136.05,241.79,126,238.19,109.75z"/>
			<path class="st3" d="M237.67,123.11c-4.26-19.25-20.59-7.76-43.43,6.9s-61.5,0.01-102.39-7.79c-29.73-5.67-49.51,4.47-58.1,10.43
				c2.51,22.28,11.27,42.67,24.48,59.38h184.03c10.67-13.49,18.43-29.38,22.35-46.74C253.89,148.44,241.1,138.52,237.67,123.11z"/>
			<path class="st4" d="M235.01,137.51c-4.41-19.9-21.27-8.01-44.89,7.13c-23.61,15.13-63.56,0.01-105.83-8.06
				c-21.68-4.14-38.23-0.14-49.23,4.74c3.58,18.9,11.7,36.19,23.17,50.7h184.03c7.37-9.31,13.34-19.76,17.62-31.04
				C249.51,161.84,238.23,152.04,235.01,137.51z"/>
		</g>
		<path class="st5" d="M92.53,158.17c-0.2-1.26-1.79-2.1-3.73-2.05c0.01-0.35-0.08-0.71-0.24-1.04c0.18-0.11,0.34-0.27,0.48-0.44
			c0.42-0.52,0.56-1.17,0.44-1.78c-0.62,0.01-1.23,0.29-1.64,0.82c-0.08,0.1-0.15,0.2-0.21,0.32c-0.19-0.15-0.39-0.29-0.62-0.42
			c0.2-0.28,0.35-0.61,0.44-0.97c0.18-0.8-0.01-1.59-0.48-2.2c-0.67,0.35-1.19,0.99-1.38,1.78c-0.06,0.27-0.08,0.53-0.06,0.78
			c-0.52-0.14-1.06-0.24-1.64-0.28c-0.44-0.03-0.88-0.01-1.3,0.03c0-1.21-1.14-2.62-2.88-3.41c-0.9-0.42-1.81-0.59-2.6-0.57
			c0.01-0.35-0.04-0.73-0.16-1.09c-0.32-0.95-1.02-1.65-1.88-2.01c-0.48,0.8-0.63,1.78-0.32,2.73c0.11,0.37,0.29,0.68,0.52,0.97
			c-0.2,0.16-0.35,0.37-0.47,0.61c-0.01,0.01-0.01,0.03-0.03,0.05c-0.08-0.28-0.2-0.54-0.37-0.8c-0.47-0.69-1.19-1.1-1.96-1.19
			c-0.21,0.75-0.1,1.57,0.37,2.26c0.18,0.25,0.38,0.47,0.62,0.64c-0.16,0.01-0.32,0.04-0.48,0.06c-2.19,0.35-3.82,1.68-3.83,3.06
			c-1.26,0.14-2.22,0.76-2.35,1.64c-0.06,0.45,0.1,0.92,0.45,1.33c-1.4,0.76-2.2,2.01-1.81,2.97c0.09,0.24,0.25,0.43,0.45,0.59
			c-1.12,0.61-1.82,1.53-1.73,2.49c0.09,0.92,0.87,1.67,2.01,2.07c0.48,1.29,2.4,2.12,4.6,1.91l16.46-1.54
			c0.15,0.04,0.32,0.06,0.48,0.09c2.35,0.34,4.42-0.57,4.64-2.03c0.14-0.97-0.58-1.96-1.77-2.6
			C91.89,160.27,92.7,159.2,92.53,158.17z"/>
		<g>
			<g>
				<path class="st6" d="M145.3,46.01c-0.23,0-0.42,0.19-0.42,0.42v10.11h0.82V46.43C145.72,46.2,145.53,46.01,145.3,46.01z"/>
				<polygon class="st7" points="145.63,49.31 145.63,51.48 151.62,49.31 145.63,47.14 				"/>
			</g>
			<rect x="106.01" y="89.84" class="st8" width="78.58" height="55.89"/>
			<g>
				<rect x="106.01" y="93.53" class="st9" width="78.58" height="0.42"/>
				<rect x="106.01" y="96.83" class="st9" width="78.58" height="0.42"/>
				<rect x="106.01" y="100.16" class="st9" width="78.58" height="0.42"/>
				<rect x="106.01" y="103.47" class="st9" width="78.58" height="0.42"/>
				<rect x="106.01" y="106.79" class="st9" width="78.58" height="0.42"/>
				<rect x="106.01" y="110.11" class="st9" width="78.58" height="0.42"/>
				<rect x="106.01" y="113.42" class="st9" width="78.58" height="0.42"/>
				<rect x="106.01" y="116.74" class="st9" width="78.58" height="0.42"/>
				<rect x="106.01" y="120.07" class="st9" width="78.58" height="0.42"/>
				<rect x="106.01" y="123.38" class="st9" width="78.58" height="0.42"/>
				<rect x="106.01" y="126.7" class="st9" width="78.58" height="0.42"/>
				<rect x="106.01" y="130.02" class="st9" width="78.58" height="0.42"/>
				<rect x="106.01" y="133.33" class="st9" width="78.58" height="0.42"/>
				<rect x="106.01" y="136.65" class="st9" width="78.58" height="0.42"/>
				<rect x="106.01" y="139.98" class="st9" width="78.58" height="0.42"/>
				<rect x="106.01" y="143.29" class="st9" width="78.58" height="0.42"/>
			</g>
			<rect x="91.44" y="145.71" class="st10" width="130.01" height="4.14"/>
			<rect x="91.44" y="149.87" class="st6" width="130.01" height="2.07"/>
			<rect x="217.96" y="89.84" class="st6" width="3.49" height="55.89"/>
			<rect x="91.44" y="89.84" class="st6" width="3.49" height="55.89"/>
			<g>
				<rect x="91.44" y="151.94" class="st11" width="3.49" height="15.94"/>
				<rect x="112.53" y="151.94" class="st11" width="3.49" height="15.94"/>
				<rect x="133.61" y="151.94" class="st11" width="3.49" height="15.94"/>
				<rect x="154.71" y="151.94" class="st11" width="3.49" height="15.94"/>
				<rect x="175.8" y="151.94" class="st11" width="3.49" height="15.94"/>
				<rect x="196.88" y="151.94" class="st11" width="3.49" height="15.94"/>
				<rect x="217.96" y="151.94" class="st11" width="3.49" height="15.94"/>
				<rect x="91.44" y="151.94" class="st12" width="3.49" height="1.84"/>
				<rect x="112.53" y="151.94" class="st12" width="3.49" height="1.84"/>
				<rect x="133.61" y="151.94" class="st12" width="3.49" height="1.84"/>
				<rect x="154.71" y="151.94" class="st12" width="3.49" height="1.84"/>
				<rect x="175.8" y="151.94" class="st12" width="3.49" height="1.84"/>
				<rect x="196.88" y="151.94" class="st12" width="3.49" height="1.84"/>
				<rect x="217.96" y="151.94" class="st12" width="3.49" height="1.84"/>
			</g>
			<path class="st13" d="M143.45,55.31l-42.07,32h43.91h43.91l-42.07-32C146.06,54.48,144.54,54.48,143.45,55.31z"/>
			<path class="st6" d="M223.12,87.31H89.78c-0.69,0-1.26,0.57-1.26,1.26s0.57,1.26,1.26,1.26h133.33c0.69,0,1.26-0.57,1.26-1.26
				C224.38,87.87,223.81,87.31,223.12,87.31z"/>
			<rect x="113.17" y="100.16" class="st14" width="27.12" height="45.57"/>
			<g>
				<rect x="114.27" y="101.19" class="st15" width="24.92" height="44.52"/>
				<path class="st7" d="M124.04,145.71c-1.01-14.82-9.75-23.5-9.75-23.5v23.5H124.04z"/>
				<path class="st7" d="M126.74,101.19h-12.47v21.02C126.39,119.36,126.74,101.19,126.74,101.19z"/>
				<path class="st7" d="M139.2,122.21v-21.02h-12.46C126.74,101.19,127.08,119.36,139.2,122.21z"/>
				<path class="st7" d="M139.2,145.71v-23.5c0,0-8.74,8.68-9.75,23.5H139.2z"/>
			</g>
			<g>
				<rect x="158.92" y="128.78" class="st6" width="59.06" height="1.81"/>
				<rect x="158.92" y="138.61" class="st6" width="59.06" height="1.81"/>
				<g>
					<path class="st6" d="M159.87,124.07L159.87,124.07c-0.53,0-0.96,0.43-0.96,0.95v20.69h1.91v-20.71
						C160.81,124.49,160.4,124.07,159.87,124.07z"/>
					<circle class="st16" cx="159.87" cy="129.57" r="0.4"/>
					<circle class="st16" cx="159.87" cy="139.51" r="0.4"/>
				</g>
				<g>
					<path class="st6" d="M171.75,124.07L171.75,124.07c-0.53,0-0.96,0.43-0.96,0.95v20.69h1.91v-20.71
						C172.7,124.49,172.28,124.07,171.75,124.07z"/>
					<circle class="st16" cx="171.75" cy="129.57" r="0.4"/>
					<circle class="st16" cx="171.75" cy="139.51" r="0.4"/>
				</g>
				<g>
					<path class="st6" d="M183.64,124.07L183.64,124.07c-0.53,0-0.96,0.43-0.96,0.95v20.69h1.91v-20.71
						C184.59,124.49,184.17,124.07,183.64,124.07z"/>
					<circle class="st16" cx="183.64" cy="129.57" r="0.4"/>
					<circle class="st16" cx="183.64" cy="139.51" r="0.4"/>
				</g>
				<g>
					<path class="st6" d="M195.53,124.07L195.53,124.07c-0.53,0-0.96,0.43-0.96,0.95v20.69h1.91v-20.71
						C196.48,124.49,196.06,124.07,195.53,124.07z"/>
					<circle class="st16" cx="195.53" cy="129.57" r="0.4"/>
					<circle class="st16" cx="195.53" cy="139.51" r="0.4"/>
				</g>
				<g>
					<path class="st6" d="M207.42,124.07L207.42,124.07c-0.53,0-0.96,0.43-0.96,0.95v20.69h1.91v-20.71
						C208.36,124.49,207.93,124.07,207.42,124.07z"/>
					<circle class="st16" cx="207.42" cy="129.57" r="0.4"/>
					<circle class="st16" cx="207.42" cy="139.51" r="0.4"/>
				</g>
			</g>
			<g>
				<rect x="147.11" y="100.16" class="st14" width="31.1" height="20.45"/>
				<rect x="154.23" y="100.9" class="st15" width="16.85" height="18.96"/>
				<g>
					<rect x="147.9" y="100.9" class="st17" width="6.33" height="18.96"/>
					<rect x="147.9" y="101.84" class="st18" width="6.33" height="0.24"/>
					<rect x="147.9" y="102.97" class="st18" width="6.33" height="0.24"/>
					<rect x="147.9" y="104.1" class="st18" width="6.33" height="0.24"/>
					<rect x="147.9" y="105.22" class="st18" width="6.33" height="0.24"/>
					<rect x="147.9" y="106.36" class="st18" width="6.33" height="0.24"/>
					<rect x="147.9" y="107.48" class="st18" width="6.33" height="0.24"/>
					<rect x="147.9" y="108.61" class="st18" width="6.33" height="0.24"/>
					<rect x="147.9" y="109.75" class="st18" width="6.33" height="0.24"/>
					<rect x="147.9" y="110.87" class="st18" width="6.33" height="0.24"/>
					<rect x="147.9" y="111.99" class="st18" width="6.33" height="0.24"/>
					<rect x="147.9" y="113.13" class="st18" width="6.33" height="0.24"/>
					<rect x="147.9" y="114.26" class="st18" width="6.33" height="0.24"/>
					<rect x="147.9" y="115.38" class="st18" width="6.33" height="0.24"/>
					<rect x="147.9" y="116.52" class="st18" width="6.33" height="0.24"/>
					<rect x="147.9" y="117.64" class="st18" width="6.33" height="0.24"/>
					<rect x="147.9" y="118.77" class="st18" width="6.33" height="0.24"/>
				</g>
				<g>
					<rect x="171.08" y="100.9" class="st17" width="6.33" height="18.96"/>
					<rect x="171.08" y="101.84" class="st18" width="6.33" height="0.24"/>
					<rect x="171.08" y="102.97" class="st18" width="6.33" height="0.24"/>
					<rect x="171.08" y="104.1" class="st18" width="6.33" height="0.24"/>
					<rect x="171.08" y="105.22" class="st18" width="6.33" height="0.24"/>
					<rect x="171.08" y="106.36" class="st18" width="6.33" height="0.24"/>
					<rect x="171.08" y="107.48" class="st18" width="6.33" height="0.24"/>
					<rect x="171.08" y="108.61" class="st18" width="6.33" height="0.24"/>
					<rect x="171.08" y="109.75" class="st18" width="6.33" height="0.24"/>
					<rect x="171.08" y="110.87" class="st18" width="6.33" height="0.24"/>
					<rect x="171.08" y="111.99" class="st18" width="6.33" height="0.24"/>
					<rect x="171.08" y="113.13" class="st18" width="6.33" height="0.24"/>
					<rect x="171.08" y="114.26" class="st18" width="6.33" height="0.24"/>
					<rect x="171.08" y="115.38" class="st18" width="6.33" height="0.24"/>
					<rect x="171.08" y="116.52" class="st18" width="6.33" height="0.24"/>
					<rect x="171.08" y="117.64" class="st18" width="6.33" height="0.24"/>
					<rect x="171.08" y="118.77" class="st18" width="6.33" height="0.24"/>
				</g>
				<path class="st7" d="M159.13,119.86c-0.76-3.52-4.9-8.29-4.9-8.29v8.29H159.13z"/>
				<path class="st7" d="M159.89,100.9h-5.66v10.67C159.42,110.38,159.89,100.9,159.89,100.9z"/>
				<path class="st7" d="M171.08,111.58V100.9h-5.66C165.42,100.9,165.89,110.38,171.08,111.58z"/>
				<path class="st7" d="M171.08,119.86v-8.29c0,0-4.14,4.75-4.9,8.29H171.08z"/>
			</g>
			<rect x="106.01" y="89.84" class="st19" width="78.58" height="2.24"/>
			<rect x="91.44" y="89.84" class="st20" width="3.49" height="2.24"/>
			<rect x="217.96" y="89.84" class="st20" width="3.49" height="2.24"/>
			<g>
				<polygon class="st21" points="130.76,64.96 130.16,65.42 160.43,65.42 159.84,64.96 				"/>
				<polygon class="st21" points="111.06,79.93 110.47,80.39 180.13,80.39 179.53,79.93 				"/>
				<polygon class="st21" points="140.6,57.47 140.01,57.93 150.59,57.93 150,57.47 				"/>
				<polygon class="st21" points="135.69,61.22 135.09,61.68 155.51,61.68 154.91,61.22 				"/>
				<polygon class="st21" points="106.15,83.68 105.56,84.13 185.04,84.13 184.45,83.68 				"/>
				<polygon class="st21" points="115.99,76.19 115.4,76.65 175.2,76.65 174.61,76.19 				"/>
				<polygon class="st21" points="120.92,72.45 120.32,72.91 170.27,72.91 169.68,72.45 				"/>
				<polygon class="st21" points="125.83,68.7 125.24,69.16 165.36,69.16 164.77,68.7 				"/>
			</g>
		</g>
		<g>
			<path class="st8" d="M71.85,67.78l-4.3-2.06c0,0-21.56,49.09,3.45,106.58l12.94-1.77C83.94,170.54,56.94,135.73,71.85,67.78z"/>
			<path class="st22" d="M71.29,70.41c-4.75,14.62-14.33,55.03,5.57,100.77l6.86-0.93C81.21,166.78,58.37,133.04,71.29,70.41z"/>
			<path class="st23" d="M50.51,64.05C42.4,64.9,35.3,68.2,30.28,72.88l5.82-0.61l0.33-2.07l0.39,2l1.02-0.11l0.21-2.49l0.82,2.38
				l0.91-0.1l0.27-1.3l0.59,1.21l6.51-0.68l0.47-3.84l0.39,3.75l0.82-0.09l0.71-3.42l0.56,3.3l1.11-0.11l-0.21-2.02l1.11,1.92
				l7.5-0.78l0.51-3.07l0.9,2.93l0.97-0.1l-0.21-2.02l1.09,1.93l9.29-0.97C66.25,64.95,58.62,63.19,50.51,64.05z"/>
			<path class="st5" d="M87.86,59.37c-8.69,0.68-16.35,4.38-21.79,9.87l8.53-0.67l0.62-3.06l0.24,2.99l0.97-0.08l0.16-4.09
				l1.11,3.99l6.66-0.52l0.52-2.56l0.2,2.51l1.36-0.11l0.75-4.13l1.07,3.99l1.33-0.1l0.21-2.54l0.81,2.46l7.64-0.61l0.54-3.47
				l0.64,3.39l11.47-0.9C104.68,61.15,96.55,58.68,87.86,59.37z"/>
			<path class="st24" d="M85.97,70.09c-6.71-2.8-13.8-2.98-19.92-1l4.59,1.92l1.5-1.04l-0.82,1.33l0.57,0.24l1.47-1.83l-0.87,2.07
				l3.4,1.43l1.21-1.16l-0.59,1.41l0.63,0.27L79,70.84l-0.92,3.28l0.78,0.33l0.71-1.36l-0.14,1.6l8.31,3.49l2.25-3.12l-1.17,3.56
				l0.73,0.3l1.36-1.87l-0.58,2.2l0.61,0.25l0.76-1.81l-0.04,2.1l9.01,3.78C97.77,77.82,92.68,72.9,85.97,70.09z"/>
			<path class="st24" d="M54.86,50.69c-8.09-3.9-16.88-4.43-24.68-2.15l7.54,3.64l2.46-2.21l-1.33,2.77l0.87,0.42l1.3-1.71
				l-0.48,2.1l1.09,0.52l2.7-4.26l-1.6,4.79l6.1,2.94l2.01-2.05l-0.95,2.56l1.25,0.61l2.13-3.45l-1.01,4l1.04,0.49l1.48-1.07
				l-0.69,1.45l7.3,3.52l2-2.06l-1.02,2.53l9.56,4.61C68.83,61.13,62.94,54.58,54.86,50.69z"/>
			<path class="st23" d="M76.01,48.2c-5.17,5.29-7.45,12.43-7.04,19.8l4.81-4.94l-1.47-2.88l2.2,2.15l0.56-0.57l-1.25-1.72
				l1.77,1.17l0.69-0.71l-3.25-3.85l3.95,3.13l3.89-3.99l-1.41-2.44l2.1,1.74l0.8-0.81l-2.64-3.07l3.37,2.34l0.66-0.67l-0.66-1.63
				l1.15,1.12l4.66-4.78l-1.43-2.44l2.05,1.79l6.11-6.27C88.25,40.43,81.17,42.9,76.01,48.2z"/>
			<g>
				<g>
					<ellipse class="st25" cx="70.17" cy="72.27" rx="3.01" ry="3.01"/>
					<path class="st26" d="M69.02,69.5c-1.53,0.63-2.26,2.39-1.63,3.93c0.37,0.88,1.1,1.5,1.96,1.74c-0.28-0.28-0.51-0.61-0.66-0.99
						c-0.63-1.53,0.09-3.3,1.63-3.93c0.64-0.27,1.34-0.29,1.97-0.11C71.45,69.32,70.17,69.03,69.02,69.5z"/>
					
						<ellipse transform="matrix(0.4816 -0.8764 0.8764 0.4816 -26.8132 100.9482)" class="st27" cx="71.92" cy="73.14" rx="0.95" ry="0.64"/>
				</g>
				<g>
					<ellipse class="st25" cx="66.67" cy="69.4" rx="3.01" ry="3.01"/>
					<path class="st26" d="M68.92,68.54c-0.25,1.64-1.78,2.77-3.42,2.53c-0.69-0.1-1.3-0.44-1.74-0.92
						c0.29,1.14,1.24,2.05,2.46,2.24c1.64,0.25,3.17-0.88,3.42-2.53c0.14-0.95-0.18-1.86-0.78-2.5
						C68.96,67.73,68.98,68.13,68.92,68.54z"/>
					
						<ellipse transform="matrix(0.865 -0.5018 0.5018 0.865 -25.1434 42.0742)" class="st27" cx="65.62" cy="67.76" rx="0.95" ry="0.64"/>
				</g>
				<g>
					<ellipse class="st25" cx="70.6" cy="68.46" rx="3.01" ry="3.01"/>
					<path class="st26" d="M69.32,66.89c0.29-0.64,0.77-1.14,1.35-1.44c-1.17-0.03-2.3,0.64-2.8,1.78c-0.68,1.52,0,3.3,1.52,3.97
						c0.87,0.39,1.83,0.33,2.62-0.09c-0.39-0.01-0.78-0.09-1.16-0.27C69.32,70.18,68.64,68.41,69.32,66.89z"/>
					
						<ellipse transform="matrix(0.9673 -0.2536 0.2536 0.9673 -14.8441 20.5975)" class="st27" cx="72.47" cy="67.88" rx="0.64" ry="0.95"/>
				</g>
			</g>
			<g>
				<path class="st28" d="M59.57,100.59h7.92c0.01-0.29,0.03-0.57,0.04-0.86h-7.87C59.62,100.01,59.6,100.3,59.57,100.59z"/>
				<path class="st28" d="M61.18,88.78l7.11,0.87c0.03-0.29,0.06-0.57,0.09-0.86l-7.05-0.87C61.28,88.21,61.23,88.48,61.18,88.78z"
					/>
				<path class="st28" d="M63.49,78.2l6.16,1.12c0.05-0.28,0.09-0.57,0.14-0.85l-6.09-1.11C63.64,77.63,63.56,77.91,63.49,78.2z"/>
				<path class="st28" d="M59.38,126c0.03,0.29,0.05,0.58,0.08,0.86l8.94-1.88c-0.04-0.29-0.06-0.57-0.1-0.86L59.38,126z"/>
				<path class="st28" d="M58.94,112.06c0,0.29-0.01,0.58-0.01,0.87l8.5-0.97c-0.01-0.29-0.01-0.57-0.03-0.86L58.94,112.06z"/>
				<path class="st28" d="M65.33,157.01c0.09,0.28,0.16,0.56,0.25,0.82l10.47-2.2c-0.11-0.27-0.21-0.54-0.33-0.81L65.33,157.01z"/>
				<path class="st28" d="M61.64,142.4c0.05,0.28,0.11,0.57,0.16,0.85l9.58-2.01c-0.08-0.28-0.14-0.56-0.2-0.83L61.64,142.4z"/>
			</g>
		</g>
		<path class="st23" d="M75.68,164.02c0.15-0.19,0.24-0.39,0.28-0.63c0.14-0.95-0.83-1.89-2.24-2.27c0.23-0.43,0.28-0.88,0.13-1.28
			c-0.3-0.76-1.29-1.1-2.44-0.96c-0.3-1.23-2.03-2.06-4.07-1.91c-0.15,0.01-0.3,0.03-0.44,0.05c0.16-0.2,0.32-0.44,0.4-0.71
			c0.27-0.72,0.19-1.48-0.16-2.1c-0.67,0.24-1.23,0.76-1.5,1.48c-0.1,0.27-0.15,0.53-0.15,0.78c-0.01-0.01-0.01-0.03-0.03-0.04
			c-0.15-0.19-0.33-0.33-0.54-0.44c0.14-0.3,0.23-0.63,0.25-0.97c0.08-0.91-0.27-1.77-0.87-2.36c-0.69,0.49-1.17,1.28-1.25,2.19
			c-0.03,0.35,0,0.68,0.09,1.01c-0.72,0.15-1.49,0.51-2.21,1.06c-1.39,1.09-2.1,2.58-1.84,3.66c-0.38,0.05-0.77,0.14-1.16,0.25
			c-0.51,0.15-0.99,0.35-1.41,0.59c-0.04-0.24-0.11-0.47-0.21-0.69c-0.33-0.67-0.92-1.12-1.6-1.3c-0.28,0.63-0.29,1.39,0.04,2.06
			c0.15,0.3,0.35,0.57,0.59,0.77c-0.18,0.16-0.33,0.33-0.45,0.49c-0.08-0.09-0.16-0.16-0.25-0.24c-0.48-0.38-1.09-0.49-1.64-0.38
			c0.03,0.57,0.29,1.12,0.77,1.5c0.16,0.13,0.34,0.23,0.53,0.29c-0.08,0.33-0.08,0.66,0.01,0.97c-1.73,0.38-2.98,1.45-2.89,2.63
			c0.08,0.96,1.02,1.73,2.34,2.05c-0.92,0.83-1.36,1.86-1.02,2.7c0.51,1.26,2.55,1.64,4.57,0.83c0.14-0.05,0.28-0.11,0.42-0.18
			l15.01-2.11c2.01-0.28,3.55-1.43,3.7-2.68c0.93-0.61,1.48-1.44,1.35-2.27C77.62,164.99,76.82,164.32,75.68,164.02z"/>
		<path class="st23" d="M103.13,161.41c-0.16-1.05-1.48-1.73-3.07-1.69c0.01-0.29-0.06-0.58-0.2-0.86c0.15-0.1,0.28-0.21,0.4-0.37
			c0.34-0.43,0.45-0.97,0.37-1.47c-0.51,0.01-1.01,0.24-1.36,0.67c-0.06,0.08-0.13,0.16-0.18,0.25c-0.15-0.13-0.33-0.24-0.51-0.34
			c0.16-0.24,0.29-0.51,0.37-0.81c0.15-0.66-0.01-1.31-0.39-1.81c-0.56,0.29-0.99,0.81-1.12,1.47c-0.05,0.21-0.06,0.44-0.05,0.64
			c-0.42-0.11-0.88-0.2-1.35-0.23c-0.37-0.03-0.73-0.01-1.07,0.03c0-1-0.93-2.16-2.38-2.82c-0.73-0.34-1.49-0.49-2.15-0.47
			c0.01-0.29-0.04-0.59-0.14-0.9c-0.25-0.78-0.83-1.36-1.54-1.65c-0.4,0.66-0.52,1.47-0.27,2.25c0.1,0.3,0.24,0.57,0.43,0.8
			c-0.16,0.14-0.29,0.3-0.38,0.51c0,0.01-0.01,0.03-0.01,0.04c-0.06-0.23-0.16-0.45-0.3-0.66c-0.38-0.57-0.99-0.91-1.62-0.97
			c-0.18,0.62-0.09,1.3,0.29,1.87c0.14,0.21,0.32,0.39,0.51,0.53c-0.13,0.01-0.27,0.03-0.4,0.05c-1.81,0.29-3.15,1.39-3.16,2.51
			c-1.04,0.11-1.83,0.63-1.93,1.35c-0.05,0.38,0.09,0.76,0.38,1.09c-1.15,0.62-1.81,1.65-1.49,2.45c0.08,0.19,0.2,0.35,0.38,0.49
			c-0.93,0.51-1.5,1.26-1.43,2.05c0.08,0.76,0.72,1.38,1.65,1.71c0.39,1.06,1.97,1.74,3.79,1.58l13.57-1.28
			c0.13,0.03,0.27,0.05,0.39,0.08c1.93,0.28,3.64-0.47,3.82-1.68c0.11-0.81-0.48-1.62-1.45-2.15
			C102.61,163.15,103.27,162.27,103.13,161.41z"/>
		<path class="st23" d="M250.99,166.49c0.09-0.28,0.1-0.58,0.04-0.87c0.16-0.05,0.33-0.14,0.48-0.25c0.44-0.33,0.69-0.81,0.75-1.33
			c-0.49-0.13-1.04-0.04-1.49,0.29c-0.09,0.06-0.16,0.13-0.24,0.2c-0.11-0.16-0.25-0.32-0.4-0.47c0.23-0.18,0.42-0.4,0.56-0.68
			c0.32-0.59,0.33-1.26,0.1-1.84c-0.61,0.14-1.16,0.52-1.48,1.11c-0.1,0.2-0.18,0.4-0.21,0.62c-0.38-0.23-0.8-0.42-1.25-0.58
			c-0.35-0.11-0.69-0.2-1.04-0.27c0.27-0.96-0.33-2.32-1.54-3.35c-0.62-0.52-1.31-0.87-1.95-1.02c0.09-0.28,0.13-0.58,0.11-0.9
			c-0.04-0.82-0.44-1.54-1.05-2.01c-0.56,0.52-0.9,1.28-0.85,2.1c0.01,0.32,0.09,0.61,0.2,0.88c-0.19,0.09-0.37,0.21-0.51,0.38
			c-0.01,0.01-0.01,0.03-0.03,0.04c0-0.24-0.04-0.48-0.11-0.71c-0.21-0.66-0.71-1.14-1.3-1.38c-0.33,0.54-0.43,1.23-0.2,1.88
			c0.08,0.24,0.2,0.45,0.34,0.64c-0.13-0.03-0.27-0.04-0.4-0.06c-1.82-0.19-3.4,0.51-3.7,1.59c-1.04-0.16-1.93,0.13-2.22,0.8
			c-0.15,0.35-0.11,0.76,0.08,1.15c-1.28,0.29-2.19,1.11-2.08,1.97c0.03,0.2,0.1,0.4,0.23,0.57c-1.02,0.24-1.78,0.82-1.92,1.6
			c-0.13,0.75,0.33,1.52,1.15,2.08c0.1,1.12,1.44,2.2,3.23,2.51l13.42,2.35c0.11,0.06,0.24,0.13,0.37,0.18
			c1.79,0.78,3.64,0.51,4.13-0.61c0.33-0.75-0.04-1.68-0.83-2.45c1.2-0.24,2.07-0.9,2.16-1.77
			C253.61,167.88,252.53,166.89,250.99,166.49z"/>
		<path class="st23" d="M231.48,163.28c0.15-0.15,0.25-0.33,0.32-0.53c0.23-0.83-0.53-1.78-1.73-2.26c0.24-0.37,0.34-0.76,0.24-1.12
			c-0.19-0.71-1.02-1.12-2.05-1.11c-0.14-1.12-1.58-2.06-3.37-2.13c-0.14,0-0.27-0.01-0.39,0c0.18-0.16,0.32-0.37,0.43-0.59
			c0.32-0.61,0.32-1.3,0.08-1.88c-0.61,0.14-1.16,0.54-1.47,1.16c-0.11,0.23-0.19,0.45-0.21,0.68c-0.01-0.01-0.01-0.03-0.03-0.04
			c-0.11-0.18-0.25-0.33-0.43-0.45c0.15-0.25,0.27-0.54,0.33-0.85c0.16-0.81-0.05-1.6-0.52-2.2c-0.66,0.37-1.16,1.01-1.33,1.82
			c-0.06,0.3-0.06,0.61-0.03,0.91c-0.64,0.05-1.36,0.29-2.05,0.72c-1.33,0.82-2.11,2.08-2,3.07c-0.34,0-0.69,0.04-1.05,0.1
			c-0.47,0.09-0.9,0.21-1.3,0.38c-0.01-0.21-0.05-0.43-0.13-0.64c-0.21-0.63-0.69-1.1-1.28-1.33c-0.32,0.54-0.39,1.21-0.18,1.84
			c0.1,0.29,0.25,0.54,0.44,0.76c-0.16,0.13-0.32,0.25-0.45,0.39c-0.06-0.09-0.13-0.16-0.2-0.24c-0.39-0.39-0.9-0.56-1.4-0.51
			c-0.04,0.51,0.14,1.04,0.52,1.41c0.13,0.13,0.28,0.24,0.43,0.32c-0.1,0.29-0.14,0.58-0.1,0.87c-1.57,0.15-2.77,0.99-2.82,2.03
			c-0.04,0.87,0.71,1.65,1.84,2.07c-0.9,0.64-1.39,1.52-1.17,2.3c0.32,1.19,2.07,1.73,3.93,1.23c0.13-0.04,0.25-0.08,0.38-0.11
			l13.4-0.3c1.79-0.04,3.26-0.91,3.52-2c0.88-0.44,1.44-1.12,1.43-1.88C233.1,164.36,232.45,163.68,231.48,163.28z"/>
		<g>
			<g>
				<path class="st23" d="M51.61,134.28c0,0,6.38,0.44,14.58,24.56l1.4,0.21C67.59,159.05,60.65,134.23,51.61,134.28z"/>
				<path class="st23" d="M49.67,138.31c0,0,6.38-0.45,17.86,22.28l1.41,0.03C68.95,160.61,58.6,137.01,49.67,138.31z"/>
				<path class="st23" d="M48.59,142.64c0,0,6.3-1.05,19.88,20.5l1.41-0.11C69.88,163.03,57.36,140.51,48.59,142.64z"/>
				<path class="st23" d="M64.89,134.03c-4.67,2.11,2.91,25.94,2.91,25.94l0.62-0.53C61.81,135.95,64.89,134.03,64.89,134.03z"/>
				<path class="st23" d="M68.31,162.62l0.72-0.35c-3.18-23.57,0.28-24.67,0.28-24.67C64.2,138.52,68.31,162.62,68.31,162.62z"/>
			</g>
		</g>
		<g>
			<polygon class="st29" points="235.4,165.1 236.08,170.31 239.15,170.31 237.6,162.12 			"/>
			<polygon class="st30" points="235.4,164.88 235.85,168.54 238.37,166.22 237.6,162.38 			"/>
			<g>
				<g>
					
						<ellipse transform="matrix(0.1925 -0.9813 0.9813 0.1925 50.136 348.3499)" class="st7" cx="236.73" cy="143.71" rx="27.22" ry="6.42"/>
					<path class="st31" d="M241.97,117c-0.04-0.01-0.08-0.01-0.13-0.01c2.35,3.12,2.39,14.26-0.14,27.11
						c-2.86,14.58-7.95,25.9-11.42,25.49c0.35,0.47,0.75,0.75,1.2,0.83c3.49,0.68,8.65-10.73,11.55-25.47
						C245.92,130.2,245.44,117.68,241.97,117z"/>
					<path class="st1" d="M232.02,135.47l10.22,13.14c0.28-1.19,0.53-2.41,0.78-3.66c0.42-2.11,0.76-4.17,1.04-6.16l-8.98-12.75
						C234,128.75,232.96,131.94,232.02,135.47z"/>
					<path class="st1" d="M230.98,139.8l10.26,12.84c0.15-0.56,0.3-1.12,0.45-1.71l-10.3-12.92
						C231.24,138.6,231.12,139.19,230.98,139.8z"/>
				</g>
				<g>
					<path class="st31" d="M238.86,160.1c-0.01,0.04-0.03,0.08-0.04,0.11C238.83,160.18,238.85,160.14,238.86,160.1z"/>
					<path class="st31" d="M238.82,160.21c-0.13,0.35-0.27,0.68-0.39,1.02C238.56,160.91,238.68,160.57,238.82,160.21z"/>
					<path class="st31" d="M238.25,161.64c-0.03,0.05-0.04,0.09-0.06,0.14C238.22,161.73,238.24,161.69,238.25,161.64z"/>
					<path class="st31" d="M238.96,159.82c-0.04,0.1-0.08,0.19-0.1,0.28C238.9,160.01,238.92,159.91,238.96,159.82z"/>
					<path class="st31" d="M238.42,161.24c-0.01,0.04-0.04,0.09-0.05,0.13C238.39,161.33,238.4,161.28,238.42,161.24z"/>
					<path class="st31" d="M238.37,161.36c-0.04,0.09-0.08,0.19-0.11,0.28C238.29,161.55,238.33,161.45,238.37,161.36z"/>
					<path class="st31" d="M239.45,158.45c-0.03,0.09-0.06,0.18-0.09,0.27C239.39,158.62,239.43,158.53,239.45,158.45z"/>
					<path class="st31" d="M239.02,159.65c-0.03,0.06-0.04,0.11-0.06,0.18C238.99,159.76,239.01,159.71,239.02,159.65z"/>
					<path class="st31" d="M239.29,158.91c-0.04,0.09-0.06,0.18-0.1,0.27C239.23,159.1,239.26,159.01,239.29,158.91z"/>
					<path class="st31" d="M238.2,161.78c-0.04,0.09-0.08,0.18-0.11,0.27C238.13,161.96,238.16,161.87,238.2,161.78z"/>
					<path class="st31" d="M239.36,158.72c-0.03,0.06-0.05,0.14-0.08,0.2C239.31,158.85,239.34,158.79,239.36,158.72z"/>
					<path class="st31" d="M239.12,159.38c-0.04,0.09-0.06,0.19-0.1,0.28C239.06,159.56,239.09,159.47,239.12,159.38z"/>
					<path class="st31" d="M239.19,159.19c-0.03,0.06-0.05,0.13-0.06,0.19C239.15,159.32,239.18,159.25,239.19,159.19z"/>
					<path class="st31" d="M236.75,164.99c-0.04,0.09-0.09,0.16-0.13,0.25C236.66,165.17,236.7,165.08,236.75,164.99z"/>
					<path class="st31" d="M237.08,164.31c-0.04,0.09-0.08,0.16-0.13,0.25C237,164.47,237.04,164.4,237.08,164.31z"/>
					<path class="st31" d="M236.96,164.56c-0.01,0.04-0.04,0.06-0.05,0.1C236.93,164.62,236.95,164.6,236.96,164.56z"/>
					<path class="st31" d="M237.25,163.94c-0.04,0.09-0.09,0.18-0.13,0.27C237.17,164.13,237.22,164.04,237.25,163.94z"/>
					<path class="st31" d="M237.13,164.22c-0.01,0.04-0.03,0.06-0.05,0.1C237.1,164.28,237.12,164.24,237.13,164.22z"/>
					<path class="st31" d="M236.79,164.9c-0.01,0.03-0.03,0.06-0.05,0.09C236.76,164.96,236.77,164.94,236.79,164.9z"/>
					<path class="st31" d="M236.91,164.66c-0.04,0.08-0.08,0.16-0.13,0.24C236.84,164.83,236.88,164.74,236.91,164.66z"/>
					<path class="st31" d="M237.75,162.86c-0.01,0.03-0.03,0.04-0.03,0.06C237.72,162.91,237.74,162.88,237.75,162.86z"/>
					<path class="st31" d="M237.72,162.92c-0.14,0.33-0.29,0.66-0.44,0.97C237.43,163.58,237.57,163.26,237.72,162.92z"/>
					<path class="st31" d="M237.92,162.46c-0.01,0.04-0.04,0.08-0.05,0.11C237.89,162.54,237.9,162.5,237.92,162.46z"/>
					<path class="st31" d="M238.04,162.19c-0.04,0.09-0.08,0.18-0.11,0.27C237.96,162.38,238,162.27,238.04,162.19z"/>
					<path class="st31" d="M237.86,162.58c-0.04,0.09-0.08,0.19-0.13,0.28C237.79,162.77,237.82,162.68,237.86,162.58z"/>
					<path class="st31" d="M239.53,158.24c-0.03,0.06-0.05,0.14-0.08,0.2C239.48,158.38,239.5,158.31,239.53,158.24z"/>
					<path class="st31" d="M238.09,162.06c-0.01,0.05-0.04,0.09-0.05,0.14C238.05,162.15,238.08,162.1,238.09,162.06z"/>
					<path class="st31" d="M241.11,153.12c-0.04,0.11-0.06,0.23-0.1,0.34C241.04,153.34,241.07,153.23,241.11,153.12z"/>
					<path class="st31" d="M241.01,153.46c-0.03,0.06-0.04,0.14-0.05,0.2C240.97,153.6,240.99,153.52,241.01,153.46z"/>
					<path class="st31" d="M241.26,152.56c-0.03,0.1-0.06,0.21-0.09,0.32C241.2,152.77,241.23,152.66,241.26,152.56z"/>
					<path class="st31" d="M241.17,152.88c-0.03,0.08-0.04,0.16-0.06,0.24C241.13,153.03,241.15,152.95,241.17,152.88z"/>
					<path class="st31" d="M240.96,153.66c-0.05,0.18-0.1,0.34-0.15,0.52C240.86,154,240.91,153.84,240.96,153.66z"/>
					<path class="st31" d="M240.8,154.18c-0.03,0.08-0.04,0.14-0.06,0.21C240.77,154.32,240.79,154.25,240.8,154.18z"/>
					<path class="st31" d="M240.74,154.39c-0.03,0.1-0.06,0.21-0.09,0.32C240.68,154.61,240.72,154.49,240.74,154.39z"/>
					<path class="st31" d="M241.63,151.18c-0.03,0.08-0.04,0.16-0.06,0.24C241.58,151.35,241.6,151.26,241.63,151.18z"/>
					<path class="st31" d="M241.56,151.42c-0.03,0.11-0.05,0.21-0.09,0.33C241.5,151.64,241.52,151.54,241.56,151.42z"/>
					<path class="st31" d="M241.32,152.31c-0.03,0.09-0.05,0.16-0.06,0.25C241.28,152.47,241.3,152.4,241.32,152.31z"/>
					<path class="st31" d="M239.62,157.97c-0.03,0.09-0.06,0.18-0.09,0.28C239.55,158.16,239.59,158.07,239.62,157.97z"/>
					<path class="st31" d="M241.47,151.75c-0.03,0.08-0.04,0.16-0.06,0.24C241.44,151.91,241.45,151.83,241.47,151.75z"/>
					<path class="st31" d="M241.41,151.99c-0.03,0.1-0.05,0.21-0.09,0.32C241.35,152.21,241.39,152.1,241.41,151.99z"/>
					<path class="st31" d="M241.64,151.11c0.01-0.06,0.03-0.11,0.05-0.18l0,0c0-0.03,0.01-0.04,0.01-0.06
						c-0.03,0.1-0.05,0.21-0.08,0.32C241.63,151.16,241.64,151.13,241.64,151.11z"/>
					<path class="st31" d="M240.02,156.77c-0.03,0.09-0.05,0.18-0.09,0.27C239.96,156.94,239.98,156.85,240.02,156.77z"/>
					<path class="st31" d="M240.65,154.71c-0.03,0.09-0.05,0.16-0.08,0.24C240.6,154.87,240.63,154.8,240.65,154.71z"/>
					<path class="st31" d="M240.1,156.53c-0.03,0.09-0.05,0.16-0.08,0.24C240.05,156.69,240.07,156.6,240.1,156.53z"/>
					<path class="st31" d="M239.69,157.76c-0.03,0.08-0.05,0.14-0.08,0.21C239.64,157.9,239.67,157.83,239.69,157.76z"/>
					<path class="st31" d="M239.86,157.26c-0.05,0.16-0.11,0.33-0.16,0.51C239.74,157.6,239.79,157.44,239.86,157.26z"/>
					<path class="st31" d="M240.17,156.26c-0.03,0.09-0.05,0.18-0.08,0.25C240.12,156.44,240.15,156.35,240.17,156.26z"/>
					<path class="st31" d="M239.93,157.03c-0.03,0.08-0.05,0.15-0.08,0.24C239.88,157.18,239.91,157.11,239.93,157.03z"/>
					<path class="st31" d="M240.58,154.96c-0.03,0.09-0.05,0.19-0.09,0.28C240.53,155.14,240.55,155.05,240.58,154.96z"/>
					<path class="st31" d="M240.26,156.01c-0.03,0.09-0.05,0.16-0.08,0.25C240.2,156.17,240.24,156.1,240.26,156.01z"/>
					<path class="st31" d="M240.49,155.24c-0.03,0.09-0.05,0.16-0.08,0.25C240.44,155.4,240.46,155.31,240.49,155.24z"/>
					<path class="st31" d="M240.41,155.49c-0.03,0.09-0.05,0.18-0.08,0.27C240.36,155.67,240.39,155.58,240.41,155.49z"/>
					<path class="st31" d="M240.34,155.76c-0.03,0.09-0.05,0.18-0.08,0.25C240.29,155.92,240.31,155.83,240.34,155.76z"/>
					<path class="st31" d="M237.28,163.89c-0.01,0.01-0.01,0.04-0.03,0.05C237.27,163.93,237.27,163.9,237.28,163.89z"/>
					<path class="st31" d="M232.04,170.43c-0.01,0-0.04,0-0.05,0.01C232,170.43,232.02,170.43,232.04,170.43z"/>
					<path class="st31" d="M232.37,170.35c-0.03,0.01-0.05,0.01-0.08,0.03C232.32,170.37,232.34,170.36,232.37,170.35z"/>
					<path class="st31" d="M232.52,170.3c-0.03,0.01-0.05,0.03-0.08,0.03C232.47,170.31,232.49,170.31,232.52,170.3z"/>
					<path class="st31" d="M232.45,170.32c-0.03,0.01-0.06,0.03-0.09,0.03C232.39,170.35,232.42,170.33,232.45,170.32z"/>
					<path class="st31" d="M232.2,170.4c-0.03,0-0.04,0.01-0.06,0.01C232.16,170.41,232.18,170.4,232.2,170.4z"/>
					<path class="st31" d="M232.14,170.41c-0.04,0.01-0.06,0.01-0.1,0.01C232.08,170.42,232.1,170.42,232.14,170.41z"/>
					<path class="st31" d="M236.62,165.24c-0.01,0.03-0.03,0.04-0.03,0.06C236.6,165.28,236.61,165.27,236.62,165.24z"/>
					<path class="st31" d="M232.98,170.04c-0.04,0.03-0.08,0.05-0.11,0.06C232.92,170.09,232.95,170.07,232.98,170.04z"/>
					<path class="st31" d="M233.07,169.99c-0.03,0.03-0.05,0.04-0.09,0.05C233.02,170.03,233.05,170.01,233.07,169.99z"/>
					<path class="st31" d="M232.61,170.26c-0.03,0.01-0.06,0.03-0.09,0.04C232.56,170.28,232.58,170.27,232.61,170.26z"/>
					<path class="st31" d="M233.15,169.94c-0.03,0.01-0.05,0.04-0.08,0.05C233.1,169.98,233.12,169.95,233.15,169.94z"/>
					<path class="st31" d="M232.68,170.22c-0.03,0.01-0.05,0.03-0.08,0.04C232.63,170.25,232.66,170.23,232.68,170.22z"/>
					<path class="st31" d="M232.77,170.17c-0.03,0.01-0.06,0.04-0.09,0.05C232.71,170.21,232.74,170.19,232.77,170.17z"/>
					<path class="st31" d="M232.88,170.12c-0.04,0.03-0.08,0.04-0.11,0.06C232.81,170.16,232.85,170.13,232.88,170.12z"/>
					<path class="st31" d="M243.03,144.94c2.44-12.44,2.49-23.3,0.34-26.79C245.5,121.65,245.47,132.5,243.03,144.94z"/>
					<path class="st31" d="M242.32,148.26c0.09-0.42,0.19-0.83,0.28-1.25C242.51,147.43,242.42,147.85,242.32,148.26z"/>
					<path class="st31" d="M242.6,147c0-0.03,0.01-0.05,0.01-0.08C242.61,146.95,242.61,146.98,242.6,147z"/>
					<path class="st31" d="M242.62,146.92c0.1-0.44,0.19-0.9,0.28-1.35C242.81,146.03,242.71,146.48,242.62,146.92z"/>
					<path class="st31" d="M243.26,117.97c-0.09-0.11-0.16-0.23-0.25-0.33C243.08,117.74,243.17,117.84,243.26,117.97z"/>
					<path class="st31" d="M242.73,117.38c0.09,0.08,0.19,0.16,0.28,0.27C242.9,117.54,242.81,117.45,242.73,117.38z"/>
					<path class="st31" d="M241.7,150.87c0.1-0.38,0.19-0.77,0.29-1.16C241.89,150.1,241.8,150.49,241.7,150.87z"/>
					<path class="st31" d="M242.3,148.38c0.01-0.04,0.01-0.08,0.03-0.11C242.32,148.3,242.31,148.34,242.3,148.38z"/>
					<path class="st31" d="M233.79,169.4c0.13-0.13,0.25-0.25,0.38-0.4C234.05,169.15,233.92,169.27,233.79,169.4z"/>
					<path class="st31" d="M231.99,170.43c-0.05,0-0.1,0.01-0.15,0.01C231.89,170.45,231.94,170.45,231.99,170.43z"/>
					<path class="st31" d="M241.99,149.7c0.01-0.05,0.03-0.09,0.04-0.14C242,149.62,241.99,149.67,241.99,149.7z"/>
					<path class="st31" d="M242.02,149.58c0.1-0.39,0.19-0.8,0.28-1.2C242.21,148.78,242.12,149.17,242.02,149.58z"/>
					<path class="st31" d="M232.29,170.37c-0.03,0.01-0.06,0.01-0.09,0.03C232.24,170.38,232.26,170.38,232.29,170.37z"/>
					<path class="st31" d="M235.45,167.29c-0.19,0.3-0.39,0.58-0.58,0.85C235.07,167.87,235.26,167.58,235.45,167.29z"/>
					<path class="st31" d="M235.61,167.02c-0.04,0.06-0.08,0.13-0.13,0.2C235.54,167.16,235.57,167.09,235.61,167.02z"/>
					<path class="st31" d="M235.49,167.23c-0.01,0.03-0.03,0.04-0.04,0.06C235.46,167.26,235.47,167.24,235.49,167.23z"/>
					<path class="st31" d="M234.67,168.41c-0.04,0.05-0.08,0.1-0.11,0.14C234.59,168.5,234.63,168.46,234.67,168.41z"/>
					<path class="st31" d="M234.83,168.19c-0.04,0.05-0.08,0.1-0.11,0.15C234.75,168.29,234.79,168.24,234.83,168.19z"/>
					<path class="st31" d="M234.72,168.34c-0.01,0.03-0.04,0.05-0.05,0.08C234.68,168.39,234.7,168.36,234.72,168.34z"/>
					<path class="st31" d="M234.88,168.12c-0.01,0.03-0.03,0.04-0.04,0.06C234.84,168.17,234.87,168.15,234.88,168.12z"/>
					<path class="st31" d="M235.99,166.39c-0.01,0.03-0.03,0.05-0.04,0.06C235.97,166.43,235.98,166.42,235.99,166.39z"/>
					<path class="st31" d="M233.24,169.88c-0.03,0.03-0.06,0.05-0.09,0.06C233.17,169.92,233.21,169.89,233.24,169.88z"/>
					<path class="st31" d="M235.95,166.46c-0.04,0.08-0.09,0.14-0.13,0.21C235.88,166.59,235.92,166.53,235.95,166.46z"/>
					<path class="st31" d="M235.83,166.67c-0.01,0.03-0.03,0.05-0.05,0.08C235.8,166.72,235.81,166.7,235.83,166.67z"/>
					<path class="st31" d="M235.79,166.75c-0.04,0.06-0.08,0.14-0.13,0.2C235.7,166.89,235.74,166.81,235.79,166.75z"/>
					<path class="st31" d="M235.66,166.95c-0.01,0.03-0.04,0.05-0.05,0.08C235.63,167,235.65,166.97,235.66,166.95z"/>
					<path class="st31" d="M236.59,165.31c-0.2,0.38-0.39,0.75-0.59,1.09C236.19,166.05,236.4,165.68,236.59,165.31z"/>
					<path class="st31" d="M233.48,169.69c-0.03,0.03-0.05,0.04-0.08,0.06C233.43,169.73,233.45,169.7,233.48,169.69z"/>
					<path class="st31" d="M233.57,169.6c-0.04,0.03-0.06,0.05-0.09,0.08C233.5,169.66,233.54,169.64,233.57,169.6z"/>
					<path class="st31" d="M233.64,169.55c-0.03,0.03-0.05,0.04-0.06,0.06C233.59,169.59,233.62,169.56,233.64,169.55z"/>
					<path class="st31" d="M233.4,169.75c-0.03,0.03-0.06,0.05-0.09,0.08C233.34,169.79,233.38,169.78,233.4,169.75z"/>
					<path class="st31" d="M233.73,169.45c-0.04,0.03-0.06,0.06-0.1,0.09C233.67,169.51,233.71,169.49,233.73,169.45z"/>
					<path class="st31" d="M233.31,169.82c-0.03,0.01-0.05,0.04-0.08,0.05C233.26,169.85,233.29,169.84,233.31,169.82z"/>
					<path class="st31" d="M234.55,168.55c-0.03,0.03-0.04,0.05-0.05,0.08C234.51,168.6,234.54,168.58,234.55,168.55z"/>
					<path class="st31" d="M234.39,168.75c-0.01,0.03-0.04,0.04-0.05,0.06C234.35,168.81,234.36,168.78,234.39,168.75z"/>
					<path class="st31" d="M234.5,168.63c-0.04,0.05-0.08,0.09-0.11,0.14C234.43,168.72,234.46,168.67,234.5,168.63z"/>
					<path class="st31" d="M234.32,168.82c-0.04,0.04-0.08,0.09-0.11,0.13C234.26,168.91,234.29,168.87,234.32,168.82z"/>
					<path class="st31" d="M234.22,168.96c-0.01,0.01-0.03,0.03-0.04,0.05C234.19,168.98,234.2,168.97,234.22,168.96z"/>
					<path class="st31" d="M233.79,169.4c-0.03,0.01-0.04,0.04-0.06,0.05C233.76,169.44,233.77,169.42,233.79,169.4z"/>
					<path class="st32" d="M242.88,145.7c-0.08,0.39-0.16,0.78-0.24,1.17C242.71,146.48,242.79,146.1,242.88,145.7z"/>
					<path class="st32" d="M242.62,146.87c-0.03,0.1-0.04,0.2-0.06,0.3C242.59,147.08,242.61,146.98,242.62,146.87z"/>
					<path class="st32" d="M242.9,145.57L242.9,145.57c0-0.03,0.01-0.05,0.01-0.08c0-0.03,0.01-0.05,0.01-0.08c0-0.01,0-0.03,0-0.03
						c0-0.01,0.01-0.04,0.01-0.05c0-0.01,0-0.03,0.01-0.05c0.01-0.04,0.01-0.08,0.03-0.11c0-0.01,0.01-0.04,0.01-0.06
						c0.01-0.04,0.01-0.08,0.03-0.11c-0.05,0.23-0.09,0.47-0.14,0.69C242.88,145.66,242.89,145.62,242.9,145.57z"/>
					<path class="st32" d="M240.07,151.19c-2.86,10.75-6.73,18.39-9.61,18.39c-0.06,0-0.13,0-0.18-0.01
						c0.34,0.45,0.73,0.75,1.17,0.83l0,0c0,0,0,0,0.01,0l0,0h0.01c0.1,0.03,0.2,0.03,0.3,0.03l0,0c0.01,0,0.04,0,0.05,0
						c2.88-0.09,6.76-7.77,9.6-18.53c-0.06,0.24-0.13,0.49-0.19,0.73L240.07,151.19z"/>
					<path class="st32" d="M242.56,147.18c-0.06,0.29-0.13,0.59-0.19,0.88C242.43,147.76,242.5,147.47,242.56,147.18z"/>
					<path class="st32" d="M241.45,151.85c0.06-0.24,0.13-0.49,0.19-0.73C241.58,151.36,241.51,151.6,241.45,151.85z"/>
					<path class="st32" d="M241.44,151.91c0-0.03,0.01-0.04,0.01-0.06C241.44,151.86,241.44,151.89,241.44,151.91z"/>
					<path class="st32" d="M242.24,148.61c0.01-0.05,0.03-0.09,0.03-0.14C242.27,148.52,242.26,148.55,242.24,148.61L242.24,148.61z
						"/>
					<path class="st32" d="M243.58,141.87c0-0.04,0.01-0.06,0.01-0.1C243.6,141.81,243.58,141.85,243.58,141.87z"/>
					<path class="st32" d="M241.97,117c-0.04-0.01-0.08-0.01-0.13-0.01c1.91,2.53,2.29,10.36,1.01,20.09l1.2,1.71
						c-0.14,0.99-0.29,1.98-0.45,2.99C245.83,128.44,245.19,117.64,241.97,117z"/>
					<path class="st32" d="M243.33,143.31c0.09-0.48,0.18-0.96,0.25-1.43C243.51,142.35,243.42,142.83,243.33,143.31z"/>
					<path class="st32" d="M242.37,148.06c-0.03,0.14-0.06,0.28-0.09,0.42C242.31,148.33,242.33,148.19,242.37,148.06z"/>
					<path class="st32" d="M243.32,143.43c0.01-0.04,0.01-0.08,0.03-0.11C243.33,143.35,243.32,143.39,243.32,143.43z"/>
					<path class="st32" d="M240.51,149.46l1.16,1.47c0.19-0.76,0.38-1.54,0.56-2.32l-1.17-1.5
						C240.89,147.91,240.7,148.69,240.51,149.46z"/>
					<path class="st32" d="M243.32,143.43c-0.09,0.51-0.19,1.01-0.29,1.53C243.13,144.44,243.22,143.93,243.32,143.43z"/>
					<path class="st31" d="M241.7,144.1c-0.2,1.02-0.42,2.02-0.63,3.01l1.17,1.5c0.27-1.17,0.53-2.38,0.77-3.6l0,0
						c0-0.01,0.01-0.04,0.01-0.05c0.42-2.11,0.76-4.17,1.04-6.16l-1.2-1.71C242.56,139.33,242.18,141.68,241.7,144.1z"/>
					<path class="st31" d="M240.07,151.19l1.16,1.45c0.14-0.51,0.28-1.01,0.4-1.53c0.01-0.06,0.03-0.11,0.05-0.18l-1.16-1.47
						C240.38,150.06,240.22,150.63,240.07,151.19z"/>
				</g>
			</g>
		</g>
		<g>
			<g>
				<g>
					<path class="st33" d="M4.91,192.02h290.65c-17.33-17.23-75.82-29.9-145.33-29.9S22.24,174.79,4.91,192.02z"/>
					<path class="st34" d="M4.91,192.02h290.65c-17.33-17.23-75.82-29.9-145.33-29.9S22.24,174.79,4.91,192.02z"/>
					<path class="st33" d="M56.7,170.89c7.77,3.51,46.69,6.18,93.53,6.18s85.77-2.67,93.53-6.18c-25.68-5.48-58.19-8.77-93.53-8.77
						S82.39,165.39,56.7,170.89z"/>
					<ellipse class="st33" cx="103.65" cy="175.93" rx="39.88" ry="5.18"/>
					<ellipse class="st33" cx="219.71" cy="175.93" rx="18.48" ry="2.4"/>
					<path class="st35" d="M214.11,183.69c-48.16,0-89.1,3.49-104.22,8.34h185.68c-1.73-1.72-3.87-3.4-6.39-5.02
						C269.47,184.94,243.09,183.69,214.11,183.69z"/>
					<path class="st35" d="M52.04,186.48c-20.15,0-36.48,2.48-36.48,5.53h72.97C88.51,188.95,72.18,186.48,52.04,186.48z"/>
					<path class="st36" d="M136.51,162.29c-17.45,0.43-34.02,1.65-49.24,3.54c0,0.01,0,0.03,0,0.04c0,2.06,31.33,3.74,69.99,3.74
						c30.16,0,55.85-1.02,65.69-2.45c-20.81-3.1-44.63-4.9-69.99-5.03C147.26,162.15,141.75,162.2,136.51,162.29z"/>
				</g>
				<ellipse class="st36" cx="233.48" cy="170.51" rx="6.68" ry="1.06"/>
			</g>
			<ellipse class="st35" cx="85.3" cy="176.5" rx="3.21" ry="0.57"/>
			<ellipse class="st35" cx="78.34" cy="170.17" rx="3.21" ry="0.57"/>
			<ellipse class="st35" cx="48.59" cy="182.28" rx="3.21" ry="0.57"/>
			<ellipse class="st35" cx="103.16" cy="188.68" rx="3.21" ry="0.57"/>
			<ellipse class="st35" cx="144.25" cy="182.28" rx="3.21" ry="0.57"/>
			<ellipse class="st35" cx="189.34" cy="180.53" rx="3.21" ry="0.57"/>
			<ellipse class="st35" cx="251.58" cy="181.7" rx="3.21" ry="0.57"/>
			<ellipse class="st35" cx="256.72" cy="177.07" rx="3.21" ry="0.57"/>
			<ellipse class="st35" cx="112.1" cy="172.87" rx="3.21" ry="0.57"/>
			<ellipse class="st35" cx="128.02" cy="175.93" rx="3.21" ry="0.57"/>
			<ellipse class="st35" cx="162.67" cy="174.02" rx="3.21" ry="0.57"/>
			<ellipse class="st35" cx="218.75" cy="175.35" rx="3.21" ry="0.57"/>
			<ellipse class="st35" cx="220.18" cy="171.57" rx="3.21" ry="0.57"/>
			<ellipse class="st35" cx="204.19" cy="172.95" rx="3.21" ry="0.57"/>
		</g>
	</g>
</g>
</svg>
