<svg id="Layer_1" data-name="Layer 1" xmlns="http://www.w3.org/2000/svg" viewBox="0 0 186.07 184.44"><defs><style>.cls-1{fill:#0bb7eb;}.cls-2{fill:#243a79;}.cls-3{fill:#ed1c24;}.cls-4{fill:#f47920;}.cls-5{fill:#fff;}</style></defs><title>logo</title><circle class="cls-1" cx="93.85" cy="92.22" r="92.22"/><path class="cls-2" d="M322.1,644.94c10.07-25.52,4.41-43.39,4.41-43.39h-3.14c3.22,16.48-9.62,37.59-21.45,43.39Z" transform="translate(-170.46 -531.03)"/><path class="cls-2" d="M323.81,603.11s7.86-16.69,26.78-9.74l-11.38,2.38,3.63,1.77Z" transform="translate(-170.46 -531.03)"/><path class="cls-2" d="M324.73,602.09s-2.52-14.76,13.31-18.91L331.56,590l3.25-.5Z" transform="translate(-170.46 -531.03)"/><path class="cls-2" d="M325,602.09s2.51-14.76-13.31-18.91l6.47,6.86-3.24-.5Z" transform="translate(-170.46 -531.03)"/><path class="cls-2" d="M325.21,602.6s-8.46-16.39-27.12-8.76l11.47,2L306,597.71Z" transform="translate(-170.46 -531.03)"/><path class="cls-2" d="M212.79,648.94c-15-37.9-6.57-64.45-6.57-64.45h4.68c-4.79,24.48,14.29,55.84,31.85,64.45Z" transform="translate(-170.46 -531.03)"/><path class="cls-2" d="M210.23,586.8S198.56,562,170.46,572.34l16.91,3.53L182,578.51Z" transform="translate(-170.46 -531.03)"/><path class="cls-2" d="M208.87,585.3s3.74-21.92-19.76-28.1l9.61,10.2-4.81-.75Z" transform="translate(-170.46 -531.03)"/><path class="cls-2" d="M208.54,585.3s-3.74-21.92,19.76-28.1l-9.62,10.2,4.82-.75Z" transform="translate(-170.46 -531.03)"/><path class="cls-2" d="M208.17,586.05s12.56-24.35,40.26-13l-17,2.92,5.29,2.82Z" transform="translate(-170.46 -531.03)"/><circle class="cls-3" cx="98.28" cy="61.61" r="23.09"/><path class="cls-4" d="M319.52,660.65l10.24-4.4-10.35-4.66a17.45,17.45,0,0,0-7.18-1.62c-6.81,0-12.94,4.43-17,12H278.38a4.68,4.68,0,0,1,1.41-1.37l10.24-4.4-10.36-4.66A17.41,17.41,0,0,0,272.5,650c-6.82,0-12.95,4.43-17,12H237.74a4.73,4.73,0,0,1,1.4-1.37l10.24-4.4L239,651.59a17.44,17.44,0,0,0-7.17-1.62c-6.82,0-13,4.43-17,12H182.74s25.51-27.57,57.94-13.65c21.78-13.86,61.85-27.92,105.2,13.65H318.12A4.73,4.73,0,0,1,319.52,660.65Z" transform="translate(-170.46 -531.03)"/><path class="cls-5" d="M345.15,674.14v20c-2.66.08-23.18-.23-24.93-.53a9.74,9.74,0,0,1-5.76-4.41c-5.19-9.17,2.9-13.05,2.9-13.05-8.85-4-15.86,2.75-19.26,11.73-3.17,8.36-15.11,6.21-18.38,5.46a9.36,9.36,0,0,1-5-4.14c-5.19-9.17,2.89-13.05,2.89-13.05-8.85-4-15.86,2.75-19.26,11.73-2.84,7.47-13.69,6.55-18.53,5.73a9.72,9.72,0,0,1-5.75-4.41c-5.19-9.17,2.9-13.05,2.9-13.05-8.85-4-15.9,2.73-19.26,11.73-1.12,3-4.15,4.82-8,5.86H183.47v-20h26.29c3.81-1,6.84-2.85,8-5.86,3.36-9,10.41-15.72,19.26-11.73,0,0-8.09,3.88-2.9,13.05a9.72,9.72,0,0,0,5.75,4.41c4.84.82,15.69,1.74,18.53-5.73,3.4-9,10.41-15.72,19.26-11.73,0,0-8.08,3.88-2.89,13.05a9.36,9.36,0,0,0,5,4.14c3.27.75,15.21,2.89,18.38-5.46,3.4-9,10.41-15.72,19.26-11.73,0,0-8.09,3.88-2.9,13.05a9.74,9.74,0,0,0,5.76,4.41C322,673.91,342.49,674.22,345.15,674.14Z" transform="translate(-170.46 -531.03)"/></svg>